<svg viewBox="0 0 A B" width="auto" height="auto" id="svg" xmlns="http://www.w3.org/2000/svg" class="transition duration-300 ease-in-out delay-150"><path d="M 0,600 C 0,600 0,150 0,150 C 98.91866028708137,159.99043062200957 197.83732057416273,169.9808612440191 286,173 C 374.16267942583727,176.0191387559809 451.56937799043055,172.06698564593302 541,176 C 630.4306220095694,179.93301435406698 731.8851674641149,191.75119617224883 836,193 C 940.1148325358851,194.24880382775117 1046.88995215311,184.92822966507177 1148,176 C 1249.11004784689,167.07177033492823 1344.5550239234449,158.53588516746413 1440,150 C 1440,150 1440,600 1440,600 Z" stroke="none" stroke-width="0" fill="#ffffff" fill-opacity="0.4" class="transition-all duration-300 ease-in-out delay-150 path-0" transform="rotate(-180 720 300)"></path><path d="M 0,600 C 0,600 0,300 0,300 C 121.46411483253587,313.0430622009569 242.92822966507174,326.0861244019139 319,337 C 395.07177033492826,347.9138755980861 425.7511961722488,356.69856459330146 525,332 C 624.2488038277512,307.30143540669854 792.0669856459331,249.11961722488036 910,244 C 1027.933014354067,238.88038277511964 1095.9808612440193,286.82296650717706 1176,305 C 1256.0191387559807,323.17703349282294 1348.0095693779904,311.58851674641147 1440,300 C 1440,300 1440,600 1440,600 Z" stroke="none" stroke-width="0" fill="#ffffff" fill-opacity="0.5" class="transition-all duration-300 ease-in-out delay-150 path-1" transform="rotate(-180 720 300)"></path><path d="M 0,600 C 0,600 0,450 0,450 C 80.64114832535884,458.92822966507174 161.28229665071768,467.85645933014354 256,454 C 350.7177033492823,440.14354066985646 459.5119617224882,403.5023923444976 561,408 C 662.4880382775118,412.4976076555024 756.66985645933,458.13397129186603 850,468 C 943.33014354067,477.86602870813397 1035.8086124401914,451.96172248803833 1134,443 C 1232.1913875598086,434.03827751196167 1336.0956937799042,442.01913875598086 1440,450 C 1440,450 1440,600 1440,600 Z" stroke="none" stroke-width="0" fill="#ffffff" fill-opacity="0.4" class="transition-all duration-300 ease-in-out delay-150 path-2" transform="rotate(-180 720 300)"></path></svg>